<mxfile host="app.diagrams.net" modified="2021-01-09T15:48:17.920Z" agent="5.0 (Macintosh; Intel Mac OS X 11_1_0) AppleWebKit/537.36 (KHTML, like Gecko) Chrome/87.0.4280.88 Safari/537.36" etag="J2tTDSlIKPJwwJjX-31T" version="14.1.8" type="github">
  <diagram id="KY8PMSi8VeK6j9uEWK3R" name="Page-1">
    <mxGraphModel dx="946" dy="646" grid="1" gridSize="10" guides="1" tooltips="1" connect="1" arrows="1" fold="1" page="1" pageScale="1" pageWidth="1200" pageHeight="1920" math="0" shadow="0">
      <root>
        <mxCell id="0" />
        <mxCell id="1" parent="0" />
        <mxCell id="M7u62a-sFAjZS3G1px5h-3" style="edgeStyle=orthogonalEdgeStyle;rounded=0;orthogonalLoop=1;jettySize=auto;html=1;exitX=0.5;exitY=1;exitDx=0;exitDy=0;entryX=0.5;entryY=0;entryDx=0;entryDy=0;" edge="1" parent="1" source="M7u62a-sFAjZS3G1px5h-1" target="M7u62a-sFAjZS3G1px5h-2">
          <mxGeometry relative="1" as="geometry" />
        </mxCell>
        <mxCell id="M7u62a-sFAjZS3G1px5h-1" value="大公海小公海到私海" style="rounded=1;whiteSpace=wrap;html=1;" vertex="1" parent="1">
          <mxGeometry x="400" y="20" width="120" height="30" as="geometry" />
        </mxCell>
        <mxCell id="M7u62a-sFAjZS3G1px5h-11" style="edgeStyle=orthogonalEdgeStyle;rounded=0;orthogonalLoop=1;jettySize=auto;html=1;exitX=0.5;exitY=1;exitDx=0;exitDy=0;entryX=0.5;entryY=0;entryDx=0;entryDy=0;" edge="1" parent="1" source="M7u62a-sFAjZS3G1px5h-2" target="M7u62a-sFAjZS3G1px5h-10">
          <mxGeometry relative="1" as="geometry" />
        </mxCell>
        <mxCell id="M7u62a-sFAjZS3G1px5h-2" value="定义四个变量&lt;br&gt;saveLeadsList 切片值为SaveLeadsAccountRecord&lt;br&gt;leadsFlowList 切片值为InsertLeadsFlow&lt;br&gt;extendsIns&amp;nbsp; 线索分配任务的extend字段" style="rounded=1;whiteSpace=wrap;html=1;align=left;" vertex="1" parent="1">
          <mxGeometry x="320" y="70" width="280" height="77.5" as="geometry" />
        </mxCell>
        <mxCell id="M7u62a-sFAjZS3G1px5h-7" style="edgeStyle=orthogonalEdgeStyle;rounded=0;orthogonalLoop=1;jettySize=auto;html=1;exitX=1;exitY=0.5;exitDx=0;exitDy=0;entryX=-0.011;entryY=0.426;entryDx=0;entryDy=0;entryPerimeter=0;" edge="1" parent="1" source="M7u62a-sFAjZS3G1px5h-4" target="M7u62a-sFAjZS3G1px5h-2">
          <mxGeometry relative="1" as="geometry" />
        </mxCell>
        <mxCell id="M7u62a-sFAjZS3G1px5h-4" value="struct{&lt;br&gt;StaffId&lt;br&gt;State&lt;br&gt;LeadsId&lt;br&gt;}" style="text;html=1;strokeColor=none;fillColor=none;align=center;verticalAlign=middle;whiteSpace=wrap;rounded=0;" vertex="1" parent="1">
          <mxGeometry x="170" y="70" width="80" height="80" as="geometry" />
        </mxCell>
        <mxCell id="M7u62a-sFAjZS3G1px5h-6" style="edgeStyle=orthogonalEdgeStyle;rounded=0;orthogonalLoop=1;jettySize=auto;html=1;exitX=0;exitY=0.5;exitDx=0;exitDy=0;entryX=1.007;entryY=0.619;entryDx=0;entryDy=0;entryPerimeter=0;" edge="1" parent="1" source="M7u62a-sFAjZS3G1px5h-5" target="M7u62a-sFAjZS3G1px5h-2">
          <mxGeometry relative="1" as="geometry" />
        </mxCell>
        <mxCell id="M7u62a-sFAjZS3G1px5h-5" value="struct{&lt;br&gt;BusinessId&lt;br&gt;StaffId&lt;br&gt;LeadsUuid&lt;br&gt;LeadsId&lt;br&gt;LeadsState&lt;br&gt;TrackDesc（备注使用）&lt;br&gt;}" style="text;html=1;strokeColor=none;fillColor=none;align=center;verticalAlign=middle;whiteSpace=wrap;rounded=0;" vertex="1" parent="1">
          <mxGeometry x="660" y="58.75" width="190" height="100" as="geometry" />
        </mxCell>
        <mxCell id="M7u62a-sFAjZS3G1px5h-9" style="edgeStyle=orthogonalEdgeStyle;rounded=0;orthogonalLoop=1;jettySize=auto;html=1;exitX=1;exitY=0.5;exitDx=0;exitDy=0;entryX=0;entryY=0.75;entryDx=0;entryDy=0;" edge="1" parent="1" source="M7u62a-sFAjZS3G1px5h-8" target="M7u62a-sFAjZS3G1px5h-2">
          <mxGeometry relative="1" as="geometry" />
        </mxCell>
        <mxCell id="M7u62a-sFAjZS3G1px5h-8" value="struct{&lt;br&gt;Urge&lt;br&gt;Single&lt;br&gt;StaffList&lt;br&gt;Bind&lt;br&gt;BindPool&lt;br&gt;TagIds&lt;br&gt;}" style="text;html=1;strokeColor=none;fillColor=none;align=center;verticalAlign=middle;whiteSpace=wrap;rounded=0;" vertex="1" parent="1">
          <mxGeometry x="60" y="170" width="190" height="100" as="geometry" />
        </mxCell>
        <mxCell id="M7u62a-sFAjZS3G1px5h-13" style="edgeStyle=orthogonalEdgeStyle;rounded=0;orthogonalLoop=1;jettySize=auto;html=1;exitX=0.5;exitY=1;exitDx=0;exitDy=0;entryX=0.5;entryY=0;entryDx=0;entryDy=0;" edge="1" parent="1" source="M7u62a-sFAjZS3G1px5h-10" target="M7u62a-sFAjZS3G1px5h-12">
          <mxGeometry relative="1" as="geometry" />
        </mxCell>
        <mxCell id="M7u62a-sFAjZS3G1px5h-10" value="使用任务info赋值l&lt;span style=&quot;text-align: left&quot;&gt;eadsAssign&lt;br&gt;结构体的task字段&lt;/span&gt;" style="rounded=1;whiteSpace=wrap;html=1;" vertex="1" parent="1">
          <mxGeometry x="370" y="170" width="180" height="40" as="geometry" />
        </mxCell>
        <mxCell id="M7u62a-sFAjZS3G1px5h-16" style="edgeStyle=orthogonalEdgeStyle;rounded=0;orthogonalLoop=1;jettySize=auto;html=1;exitX=0.5;exitY=1;exitDx=0;exitDy=0;entryX=0.5;entryY=0;entryDx=0;entryDy=0;" edge="1" parent="1" source="M7u62a-sFAjZS3G1px5h-12" target="M7u62a-sFAjZS3G1px5h-15">
          <mxGeometry relative="1" as="geometry" />
        </mxCell>
        <mxCell id="M7u62a-sFAjZS3G1px5h-12" value="&amp;nbsp;根据tagId获取线索分组信息&lt;br&gt;" style="rounded=1;whiteSpace=wrap;html=1;" vertex="1" parent="1">
          <mxGeometry x="378.75" y="230" width="162.5" height="30" as="geometry" />
        </mxCell>
        <mxCell id="M7u62a-sFAjZS3G1px5h-14" value="&lt;div&gt;select&amp;nbsp;&lt;/div&gt;&lt;div&gt;&amp;nbsp; b.id as id , b.name as name ,&lt;/div&gt;&lt;div&gt;b.business_id as business_id ,&amp;nbsp;&lt;/div&gt;&lt;div&gt;b.leads_type as leads_type&lt;/div&gt;&lt;div&gt;from&amp;nbsp;&lt;/div&gt;&lt;div&gt;tag_attr as a ,&amp;nbsp; tag_group&amp;nbsp; as b&lt;/div&gt;&lt;div&gt;where&amp;nbsp;&lt;/div&gt;&lt;div&gt;b.id = a.group_id and a.id = tagid&lt;/div&gt;" style="text;html=1;align=left;verticalAlign=middle;resizable=0;points=[];autosize=1;" vertex="1" parent="1">
          <mxGeometry x="610" y="185" width="190" height="120" as="geometry" />
        </mxCell>
        <mxCell id="M7u62a-sFAjZS3G1px5h-15" value="获取待分配总数和坐席切片列表" style="rounded=1;whiteSpace=wrap;html=1;" vertex="1" parent="1">
          <mxGeometry x="375" y="280" width="170" height="35" as="geometry" />
        </mxCell>
        <mxCell id="M7u62a-sFAjZS3G1px5h-18" style="edgeStyle=orthogonalEdgeStyle;rounded=0;orthogonalLoop=1;jettySize=auto;html=1;entryX=0;entryY=0.5;entryDx=0;entryDy=0;" edge="1" parent="1" source="M7u62a-sFAjZS3G1px5h-17" target="M7u62a-sFAjZS3G1px5h-15">
          <mxGeometry relative="1" as="geometry" />
        </mxCell>
        <mxCell id="M7u62a-sFAjZS3G1px5h-17" value="需要参数：分配任务中的tagid对应的线索类型&lt;br&gt;分配任务中extend&lt;br&gt;分配任务&lt;br&gt;" style="text;html=1;align=center;verticalAlign=middle;resizable=0;points=[];autosize=1;" vertex="1" parent="1">
          <mxGeometry x="30" y="290" width="260" height="50" as="geometry" />
        </mxCell>
      </root>
    </mxGraphModel>
  </diagram>
</mxfile>
